#!OML:ASF C:\Vicon Data\Big\jianyuan-13\jianyuan\Session 1\Capture.male.ASF
:FULLY-SPECIFIED
:DEGREES
42
root -8.005875 17.798826 -22.426363 11.718587 -4.351373 2.627921
lowerback -13.966571 -1.764792 -3.619634 
upperback 2.019263 -1.681177 -0.403790 
thorax 10.155888 -0.998546 1.231448 
lowerneck -4.150927 -0.892467 1.769824 
upperneck 23.933687 -0.752839 -3.224646 
head 8.033745 -0.500962 -1.434783 
rclavicle 0.000000 0.000000 
rhumerus -38.190558 -13.840047 -80.202336 
rradius 33.920508 
rwrist 28.356104 
rhand -17.280064 -16.585196 
rfingers 0.000000 
rthumb 8.965105 -46.374719 
lclavicle 0.000000 0.000000 
lhumerus -13.476265 8.883925 92.956619 
lradius 36.882027 
lwrist -38.658644 
lhand -20.280747 2.016645 
lfingers 0.000000 
lthumb 6.068772 31.909733 
rfemur -29.916164 0.433291 24.036860 
rtibia 28.301195 
rfoot -13.595091 -9.617961 
rtoes -17.723876 
lfemur -11.209327 7.137838 -24.262068 
ltibia 41.220318 
lfoot 7.134434 -12.250701 
ltoes -33.037341 
43
root -8.029368 17.794951 -22.354386 11.588137 -4.414237 2.475124
lowerback -13.814770 -1.694927 -3.546185 
upperback 2.031131 -1.611568 -0.360718 
thorax 10.075816 -0.961992 1.255836 
lowerneck -4.174890 -0.899192 1.822598 
upperneck 23.886847 -0.773236 -3.207741 
head 8.021546 -0.504392 -1.439311 
rclavicle 0.000000 0.000000 
rhumerus -38.204995 -13.222402 -80.585899 
rradius 34.439028 
rwrist 27.636610 
rhand -17.120910 -16.408472 
rfingers 0.000000 
rthumb 9.118658 -46.191317 
lclavicle 0.000000 0.000000 
lhumerus -13.716428 9.521880 92.778171 
lradius 36.324542 
lwrist -39.053465 
lhand -20.374802 1.919911 
lfingers 0.000000 
lthumb 5.977947 31.815576 
rfemur -29.455548 0.392965 24.297661 
rtibia 28.262209 
rfoot -13.831216 -9.402634 
rtoes -17.480567 
lfemur -11.885699 7.725431 -23.713960 
ltibia 42.862151 
lfoot 8.051562 -12.633359 
ltoes -34.372236 
44
root -8.047854 17.792793 -22.287741 11.566946 -4.370685 2.308979
lowerback -13.705969 -1.641667 -3.449954 
upperback 2.016516 -1.570728 -0.273832 
thorax 9.993604 -0.939000 1.307453 
lowerneck -4.216549 -0.997737 1.771090 
upperneck 23.881371 -0.889327 -3.271343 
head 8.023735 -0.569513 -1.461017 
rclavicle 0.000000 0.000000 
rhumerus -38.209207 -12.757839 -80.817491 
rradius 34.856577 
rwrist 27.716091 
rhand -16.911567 -16.509410 
rfingers 0.000000 
rthumb 9.320713 -46.283340 
lclavicle 0.000000 0.000000 
lhumerus -13.932011 10.258453 92.705914 
lradius 35.792271 
lwrist -39.823361 
lhand -20.298044 1.879172 
lfingers 0.000000 
lthumb 6.052061 31.772748 
rfemur -29.158611 0.245850 24.578116 
rtibia 28.255084 
rfoot -14.063434 -9.182495 
rtoes -17.320704 
lfemur -12.751274 8.102605 -23.155451 
ltibia 44.531737 
lfoot 8.795804 -13.009861 
ltoes -36.121121 
45
root -8.061614 17.787490 -22.224763 11.679101 -4.290804 2.136695
lowerback -13.715960 -1.620404 -3.311837 
upperback 1.969226 -1.577124 -0.166035 
thorax 9.946153 -0.936808 1.345056 
lowerneck -4.224968 -0.997011 1.731441 
upperneck 23.852634 -0.875913 -3.304210 
head 8.015953 -0.569242 -1.463753 
rclavicle 0.000000 0.000000 
rhumerus -38.098385 -11.949220 -81.218639 
rradius 35.316571 
rwrist 27.232089 
rhand -16.924102 -16.786247 
rfingers 0.000000 
rthumb 9.308609 -46.560739 
lclavicle 0.000000 0.000000 
lhumerus -14.181481 10.927753 92.609054 
lradius 35.286183 
lwrist -40.332502 
lhand -20.358117 1.778527 
lfingers 0.000000 
lthumb 5.994120 31.673724 
rfemur -29.042618 0.112601 24.844251 
rtibia 28.282633 
rfoot -14.315398 -8.998860 
rtoes -17.137808 
lfemur -13.802838 8.296700 -22.687314 
ltibia 46.208113 
lfoot 9.375732 -13.387898 
ltoes -37.462787 
